<svg width="96" height="96" viewBox="0 0 96 96" fill="none" xmlns="http://www.w3.org/2000/svg">
<path d="M82.607 62.107L52.606 26.105C52.0244 25.4602 51.3139 24.9447 50.5204 24.5919C49.727 24.2391 48.8683 24.0568 48 24.0568C47.1317 24.0568 46.273 24.2391 45.4796 24.5919C44.6861 24.9447 43.9756 25.4602 43.394 26.105L13.393 62.107C12.8832 62.7112 12.4978 63.4101 12.2591 64.1637C12.0203 64.9173 11.9328 65.7107 12.0017 66.4982C12.0705 67.2857 12.2943 68.0518 12.6602 68.7525C13.0261 69.4532 13.5269 70.0747 14.1338 70.5813C14.7407 71.0878 15.4417 71.4694 16.1966 71.7041C16.9514 71.9389 17.7452 72.0221 18.5324 71.949C19.3195 71.876 20.0844 71.648 20.7832 71.2784C21.4819 70.9087 22.1007 70.4046 22.604 69.795L48 39.325L73.396 69.795C73.8993 70.4046 74.5181 70.9087 75.2168 71.2784C75.9156 71.648 76.6805 71.876 77.4676 71.949C78.2547 72.0221 79.0485 71.9389 79.8034 71.7041C80.5583 71.4694 81.2593 71.0878 81.8662 70.5813C82.473 70.0747 82.9738 69.4532 83.3398 68.7525C83.7057 68.0518 83.9295 67.2857 83.9983 66.4982C84.0672 65.7107 83.9797 64.9173 83.7409 64.1637C83.5021 63.4101 83.1168 62.7112 82.607 62.107Z" fill="#9DBF21"/>
</svg>
