<svg width="137" height="137" viewBox="0 0 137 137" fill="none" xmlns="http://www.w3.org/2000/svg">
<g clip-path="url(#clip0_42_64)">
<path d="M68.5013 57.9199C62.6662 57.9199 57.9193 62.6665 57.9193 68.4993C57.9193 74.3294 62.6659 79.0757 68.5013 79.0757C74.3352 79.0757 79.0763 74.3294 79.0763 68.4993C79.0763 62.6665 74.3349 57.9199 68.5013 57.9199Z" fill="url(#paint0_linear_42_64)"/>
<path d="M135.416 65.5701L118.309 48.4574C118.304 48.4574 118.304 48.4539 118.299 48.4539L74.1142 4.26796C74.1142 4.26796 74.1086 4.26796 74.1086 4.26443L72.3249 2.47867C70.2127 0.368195 66.786 0.368195 64.6791 2.47867L62.8933 4.26443C62.8933 4.26796 62.888 4.26796 62.888 4.26796L18.7059 48.4557C18.7006 48.4557 18.7006 48.4592 18.6953 48.4592L1.58264 65.5719C-0.527832 67.6865 -0.527832 71.1055 1.58264 73.2177C2.63788 74.2729 4.02135 74.799 5.40629 74.799C6.78977 74.799 8.17853 74.2729 9.22995 73.2177L17.1176 65.3321L22.524 123.036C22.524 130.242 28.3858 136.104 35.5923 136.104H101.411C108.614 136.104 114.48 130.243 114.48 123.036L119.885 65.3321L127.769 73.2177C128.824 74.2729 130.207 74.799 131.593 74.799C132.974 74.799 134.365 74.2729 135.415 73.2177C137.528 71.1037 137.528 67.6847 135.416 65.5701ZM68.5013 89.889C56.7053 89.889 47.108 80.2917 47.108 68.4993C47.108 56.7024 56.7071 47.106 68.5013 47.106C80.2955 47.106 89.891 56.7024 89.891 68.4993C89.891 80.2935 80.299 89.889 68.5013 89.889Z" fill="url(#paint1_linear_42_64)"/>
</g>
<defs>
<linearGradient id="paint0_linear_42_64" x1="57.9193" y1="68.4978" x2="79.0763" y2="68.4978" gradientUnits="userSpaceOnUse">
<stop offset="0.45" stop-color="#9DBF21"/>
<stop offset="0.695" stop-color="#9DBF21" stop-opacity="0.8"/>
</linearGradient>
<linearGradient id="paint1_linear_42_64" x1="-0.000213623" y1="68.5001" x2="137" y2="68.5001" gradientUnits="userSpaceOnUse">
<stop offset="0.45" stop-color="#9DBF21"/>
<stop offset="0.695" stop-color="#9DBF21" stop-opacity="0.8"/>
</linearGradient>
<clipPath id="clip0_42_64">
<rect width="137" height="137" fill="white"/>
</clipPath>
</defs>
</svg>
