<svg width="84" height="75" viewBox="0 0 84 75" fill="none" xmlns="http://www.w3.org/2000/svg">
<path d="M54.7869 6.54761H56.3607L57.1475 6.69642L57.8361 6.99404L58.4754 7.44046L58.8197 7.83729L59.1147 8.43253L59.3115 8.92856L59.8033 9.67261L60.0984 10.2678L60.2951 11.0119V12.2024L60.0492 13.1448L59.8525 13.5417L59.7541 13.5913L59.7049 12.9464L59.5082 12.4008L58.8197 12.5496L58.2787 12.5L58.1803 12.748L57.8361 13.0952L57.2459 13.5417L56.9016 14.0377L56.7541 14.3849L56.7049 14.6329V15.7738L57 18.4028L57.0492 19.246V20.6349L56.9508 21.9246L56.7049 23.2639L56.5082 24.1071L56.1639 25.1488L55.7213 26.1905L55.1803 27.2321L54.5902 28.125L53.9508 28.9682L53.4098 29.5635L53.0656 29.9603L52.377 30.6051L51.8361 31.0516L50.8525 31.7956L49.8689 32.4901L49.0328 33.0357L48.0984 33.6309L47.2623 34.127L46.082 34.8214L44.4098 35.7143L43.0328 36.4087L42.0984 36.9048L41.9016 36.9544V37.0536H44.0164V47.6686L43.9672 47.7182H41.1148L41.0656 47.6686V37.8968H40.9672L40.8689 38.0952L40.4754 38.5417L40.0328 39.0873L39.4426 39.7817L39 40.3274L38.459 40.9722L38.0164 41.5178L37.4262 42.2123L36.9836 42.7579L36.3934 43.4524L35.9508 43.998L35.3607 44.6924L34.8689 45.3373L35.3115 45.2877H39.1967L39.2459 45.3373V47.5694L39.1475 47.619L32.8525 47.6686L32.5082 48.1151L32.0656 48.6607L31.5246 49.3055L31.082 49.8512L30.4918 50.5456L30.0492 51.0913L29.5082 51.7361L29.0656 52.2817L28.4754 52.9762L27.9344 53.621L27.4918 54.1667L26.4098 55.4563L26.0164 55.9524L25.4754 56.5972L25.0328 57.1428L24.4426 57.8373L24 58.3829L23.3607 59.127L22.8197 59.7718L22.377 60.3174L21.8361 60.9127L21.3934 61.4583L20.8525 62.0536L20.4098 62.5992L19.6721 63.3928L19.2295 63.9385L18.4918 64.7321L18.1475 65.129L17.8525 65.4762H17.7541L17.6557 65.6746L17.3115 66.0218L16.9672 66.4186L16.2295 67.2123L15.7869 67.6587L15.4426 68.0555L14.0656 69.4444L13.6721 69.7917L13.4262 70.0397H13.3279V70.1389L12.7869 70.5853L12.2951 71.0317L11.459 71.6766L10.7705 72.123L10.3279 72.3214H10.2295L10.2787 72.123L10.7213 71.7758L11.4098 71.1805L12.5902 69.9901L12.9344 69.5932L13.5246 68.9484L13.9672 68.4028L14.5082 67.8075L15.3934 66.7163L15.8852 66.121L16.2787 65.625L17.3607 64.2361L18 63.3928L18.5902 62.6488L20.2131 60.4663L21.5902 58.5813L22.2295 57.6885L22.918 56.746L23.5574 55.8532L25.0328 53.7698L26.2131 52.0833L26.8525 51.1905L27.4426 50.3472L28.2295 49.1567L28.7705 48.4127L29.2623 47.7182L29.3115 47.619H27.541L27.1475 47.123L26.2623 45.7837L25.5246 44.6924L24.5902 43.3036L23.7049 41.9643L23.459 42.2123L22.5246 43.6012L21.7377 44.7421L21.0984 45.6845L20.3115 46.8254L19.9672 47.3214L19.8197 47.5694L19.4262 47.619H16.5738V47.4702L17.0656 46.7758L17.4098 46.2301L18.8361 44.0972L20.2623 41.9147L21.6885 39.7817L22.4262 38.6409L23.6066 36.8551L23.7541 36.9048L24.0984 37.5L25.5246 39.6329L26.9508 41.8155L28.377 43.9484L29.8033 46.1309L30.0492 46.4782L30.2951 46.2301L30.6393 45.7341L30.6885 45.3373L30.7377 36.9544H33.6885V39.5833L33.7377 39.6825L34.082 38.8889L35.8033 35.4167L36.2951 34.4742L37.4754 32.0932L37.9672 31.1508L38.6557 29.7619L39.1475 28.8194L39.6393 27.8274L40.1311 26.8849L40.9672 25.248L42.1475 22.9663L42.7377 21.875L43.4754 20.4365L44.0656 19.3452L44.9016 17.7579L45.6885 16.3194L45.9836 15.8234L46.2787 15.2778L46.8197 14.2857L47.5082 13.0952L48.3443 11.6567L48.7377 11.0119L48.9344 10.8135L49.2295 11.8551L49.6229 12.6488L50.2131 13.3928L50.8033 13.8393L51.5902 14.2361L52.3279 14.4841L52.7705 14.5833L53.3115 14.6329H54.7377L54.9344 14.5833L53.2131 14.3849L52.1803 14.1369L51.4426 13.8393L50.7049 13.3928L50.0164 12.6984L49.5738 12.004L49.3279 11.3095L49.1803 10.7143V10.3671L49.5246 9.87102L50.0656 9.27578L51.0492 8.28372L51.8361 7.68848L52.5738 7.24205L53.3115 6.89483L54.1475 6.64681L54.7869 6.54761ZM55.2787 8.53173L54.9836 8.73015L54.8852 8.82935V9.42459L55.082 9.67261L55.2787 9.77181H55.7213L56.0656 9.47419L56.1147 9.02777L55.9672 8.68054L55.7705 8.53173H55.2787ZM33.9836 40.2778L33.7377 40.4266L33.6393 40.8234L33.6885 41.0714L33.9344 40.8234L34.2295 40.377L34.1803 40.2778H33.9836Z" fill="#559A3C"/>
<path d="M54.7869 6.54761H56.3607L57.1475 6.69642L57.8361 6.99404L58.4754 7.44046L58.8197 7.83729L59.1147 8.43253L59.3115 8.92856L59.8033 9.67261L60.0984 10.2678L60.2951 11.0119V12.2024L60.0492 13.1448L59.8525 13.5417L59.7541 13.5913L59.7049 12.9464L59.5082 12.4008L58.8197 12.5496L58.2787 12.5L58.1803 12.748L57.8361 13.0952L57.2459 13.5417L56.9016 14.0377L56.7541 14.3849L56.7049 14.6329V15.7738L57 18.4028L57.0492 19.246V20.6349L56.9508 21.9246L56.7049 23.2639L56.5082 24.1071L56.1639 25.1488L55.7213 26.1905L55.1803 27.2321L54.5902 28.125L53.9508 28.9682L53.4098 29.5635L53.0656 29.9603L52.377 30.6051L51.8361 31.0516L50.8525 31.7956L49.8688 32.4901L49.0328 33.0357L48.0984 33.6309L47.2623 34.127L46.082 34.8214L44.4098 35.7143L43.0328 36.4087L42.0984 36.9047L41.9016 36.9544V37.0536H44.0164V47.6686L43.9672 47.7182H41.1148L41.0656 47.6686V37.8968H40.9672L40.8688 38.0952L40.4754 38.5417L40.0328 39.0873L39.4426 39.7817L39 40.3274L38.459 40.9722L38.0164 41.5178L37.4262 42.2123L36.9836 42.7579L36.3934 43.4524L35.9508 43.998L35.3607 44.6924L34.8689 45.3373H33.8852L33.6885 45.2877V41.1706L33.8852 40.8234L34.1803 40.377L33.9836 40.3274L33.7869 40.377L33.8361 40.1786L34.1803 39.8809L35.5574 38.8889L36.2459 38.4424L37.4754 37.6488L38.3115 37.1032L39.4426 36.3095L40.377 35.6647L42.0492 34.5238L42.5902 34.127L44.1639 32.9365L44.9508 32.2917L45.6393 31.746L46.2295 31.2004L46.918 30.6051L47.3607 30.1587H47.459V30.0595L47.8033 29.7619L47.8525 29.6627H47.9508V29.5635H48.0492V29.4643H48.1475L48.2459 29.2659L48.5902 28.9186L49.0328 28.373L49.5738 27.7282L50.0164 27.1329L50.4098 26.5873L51.0492 25.5456L51.541 24.6032L51.9836 23.6111L52.377 22.4702L52.7213 21.1805L52.8688 20.4861L53.0164 19.0972V18.0059L52.8197 17.2123L52.4262 16.5178L51.8852 15.9226L51.2951 15.4266L50.5574 14.9801L49.8197 14.7321L49.1311 14.6329H48.6885L47.8033 14.7817L46.8197 15.0794L46.3279 15.2778L46.4262 14.9801L46.8688 14.2361L47.1639 13.6905L47.7541 12.6488L48.5902 11.2599L48.8852 10.8135L48.9836 10.9127L49.2295 11.8551L49.6229 12.6488L50.2131 13.3928L50.8033 13.8393L51.5902 14.2361L52.3279 14.4841L52.7705 14.5833L53.3115 14.6329H54.7377L54.9344 14.5833L53.2131 14.3849L52.1803 14.1369L51.4426 13.8393L50.7049 13.3928L50.0164 12.6984L49.5738 12.004L49.3279 11.3095L49.1803 10.7143V10.3671L49.5246 9.87102L50.0656 9.27578L51.0492 8.28372L51.8361 7.68848L52.5738 7.24205L53.3115 6.89483L54.1475 6.64681L54.7869 6.54761ZM55.2787 8.53173L54.9836 8.73015L54.8852 8.82935V9.42459L55.082 9.67261L55.2787 9.77181H55.7213L56.0656 9.47419L56.1147 9.02777L55.9672 8.68054L55.7705 8.53173H55.2787Z" fill="#93BA28"/>
<path d="M23.6066 36.8552L23.7541 36.9048L24.0984 37.5001L25.5246 39.633L26.9508 41.8155L28.3771 43.9485L29.8033 46.131L30.0492 46.4782L30.2951 46.2302L30.6393 45.7342L30.6885 45.3374L30.7377 36.9544H33.6885V39.5834L33.7869 39.6826V40.0298L33.7377 40.3771L33.6885 41.0219L33.7377 41.1707L33.6885 45.2878H39.1967L39.2459 45.3374V47.5695L39.1475 47.6191L32.8525 47.6687L32.5082 48.1151L32.0656 48.6608L31.5246 49.3056L31.082 49.8513L30.4918 50.5457L30.0492 51.0913L29.5082 51.7362L29.0656 52.2818L28.4754 52.9763L27.9344 53.6211L27.4918 54.1667L26.4098 55.4564L26.0164 55.9524L25.4754 56.5973L25.0328 57.1429L24.4426 57.8374L24 58.383L23.3607 59.1271L22.8197 59.7719L22.377 60.3175L21.8361 60.9128L21.3934 61.4584L20.8525 62.0536L20.4098 62.5993L19.6721 63.3929L19.2295 63.9386L18.4918 64.7322L18.1475 65.129L17.8525 65.4763H17.7541L17.6557 65.6747L17.3115 66.0219L16.9672 66.4187L16.2295 67.2124L15.7869 67.6588L15.4426 68.0556L14.0656 69.4445L13.6721 69.7917L13.4262 70.0397H13.3279V70.139L12.7869 70.5854L12.2951 71.0318L11.459 71.6767L10.7705 72.1231L10.3279 72.3215H10.2295L10.2787 72.1231L10.7213 71.7759L11.4098 71.1806L12.5902 69.9901L12.9344 69.5933L13.5246 68.9485L13.9672 68.4028L14.5082 67.8076L15.3934 66.7163L15.8852 66.1211L16.2787 65.6251L17.3607 64.2362L18 63.3929L18.5902 62.6489L20.2131 60.4663L21.5902 58.5814L22.2295 57.6886L22.918 56.7461L23.5574 55.8532L25.0328 53.7699L26.2131 52.0834L26.8525 51.1905L27.4426 50.3473L28.2295 49.1568L28.7705 48.4128L29.2623 47.7183L29.3115 47.6191H27.541L27.1475 47.1231L26.2623 45.7838L25.5246 44.6925L24.5902 43.3036L23.7049 41.9644L23.459 42.2124L22.5246 43.6013L21.7377 44.7421L21.0984 45.6846L20.3115 46.8255L19.9672 47.3215L19.8197 47.5695L19.4262 47.6191H16.5738V47.4703L17.0656 46.7759L17.4098 46.2302L18.8361 44.0973L20.2623 41.9147L21.6885 39.7818L22.4262 38.6409L23.0164 37.7481L23.6066 36.8552Z" fill="black"/>
<path d="M72.9836 36.8552H74.459L75.8852 36.9048L75.9344 36.9544V47.5695L75.7377 47.4703L73.8689 46.2798L71.8525 44.9901L68.7541 43.006L67.6721 42.3116L67.5738 42.262L67.4754 47.5695L66.9344 47.6191H64.5246V37.004L64.7213 37.0536L65.7541 37.6985L66.5902 38.2441L67.5246 38.8394L68.6066 39.5338L69.5902 40.1786L70.5246 40.7739L71.7541 41.5675L72.8852 42.3116L72.9836 42.3612V36.8552Z" fill="black"/>
<path d="M57.4918 36.9048L57.6393 36.9544L57.3443 37.3512L56.8033 37.9961L56.2623 38.6905L55.6721 39.3849L55.1311 40.0794L54.5902 40.7242L54.1967 41.2203L53.5082 42.0635L53.1148 42.5595L52.4262 43.4028L51.7869 44.1965L50.9016 45.2877L57.5902 45.3373L57.6393 45.3869V47.5695L57.541 47.6191H45.7377V47.4703L46.3279 46.7758L47.2131 45.6845L47.9016 44.8413L48.4426 44.1965L48.8361 43.7004L49.3279 43.1052L49.7705 42.5595L50.3115 41.9147L50.7541 41.3691L51.4426 40.5258L51.9836 39.881L52.4754 39.2361L52.377 39.1865H45.6885L45.6393 39.1369V37.4504L45.6885 36.9544L57.4918 36.9048Z" fill="black"/>
<path d="M54.7869 6.54761H56.3607L57.1475 6.69642L57.8361 6.99404L58.4754 7.44046L58.8197 7.83729L59.1148 8.43253L59.3115 8.92856L59.8033 9.67261L60.0984 10.2678L60.2951 11.0119V12.2024L60.0492 13.1448L59.8525 13.5417L59.7541 13.5913L59.7049 12.9464L59.5082 12.4008L58.8197 12.5496L58.2787 12.5L58.1803 12.748L57.8361 13.0952L57.2459 13.5417L56.9016 14.0377L56.7541 14.3353L55.623 14.4841L55.0328 14.5337H54.4918L53.2131 14.3849L52.1803 14.1369L51.4426 13.8393L50.7049 13.3928L50.0164 12.6984L49.5738 12.004L49.3279 11.3095L49.1803 10.7143V10.3671L49.5246 9.87102L50.0656 9.27578L51.0492 8.28372L51.8361 7.68848L52.5738 7.24205L53.3115 6.89483L54.1475 6.64681L54.7869 6.54761ZM55.2787 8.53173L54.9836 8.73015L54.8852 8.82935V9.42459L55.082 9.67261L55.2787 9.77181H55.7213L56.0656 9.47419L56.1148 9.02777L55.9672 8.68054L55.7705 8.53173H55.2787Z" fill="#93BA28"/>
<path d="M29.3607 47.6191H32.8525L32.6557 47.9664L32.2623 48.4128L31.8197 48.9584L31.2787 49.6033L30.8361 50.1489L30.2459 50.8433L29.8033 51.389L28.7213 52.6787L28.2787 53.2243L27.6885 53.9187L27.1967 54.514L26.7541 55.0596L26.2131 55.7045L25.7705 56.2501L25.2295 56.8949L24.7869 57.4406L24.1967 58.135L23.7541 58.6806L23.3115 59.1767L22.8689 59.7223L22.2787 60.4168L21.8361 60.9128L21.3934 61.4584L20.8525 62.0537L20.4098 62.5993L19.6721 63.3929L19.2295 63.9386L18.4918 64.7322L18.1475 65.1291L17.8525 65.4763H17.7541L17.6557 65.6747L17.3115 66.0219L16.9672 66.4187L16.2295 67.2124L15.7869 67.6588L15.4426 68.0556L14.0656 69.4445L13.6721 69.7918L13.4262 70.0398H13.3279V70.139L12.7869 70.5854L12.2951 71.0318L11.459 71.6767L10.7705 72.1231L10.3279 72.3215H10.2295L10.2787 72.1231L10.7213 71.7759L11.4098 71.1806L12.5902 69.9902L12.9344 69.5933L13.5246 68.9485L13.9672 68.4029L14.5082 67.8076L15.3934 66.7164L15.8852 66.1211L16.2787 65.6251L17.3607 64.2362L18 63.3929L18.5902 62.6489L20.2131 60.4664L21.5902 58.5814L22.2295 57.6886L22.918 56.7461L23.5574 55.8533L25.0328 53.7699L26.2131 52.0834L26.8525 51.1906L27.4426 50.3473L28.2295 49.1568L28.7705 48.4128L29.3607 47.6191Z" fill="#93BA28"/>
<path d="M12.8852 36.9048H17.7049L17.7541 36.9544V39.1865L17.7049 39.2361H13.7213V47.5695L13.6721 47.6191L11.1148 47.5695L11.0656 47.5199V39.4842L11.1148 39.1865H7.13115L7.08197 39.1369V36.9544L12.8852 36.9048Z" fill="black"/>
<path d="M41.0656 37.0535H44.0164V47.6685L43.9672 47.7181H41.1148L41.0656 47.6685V37.0535Z" fill="black"/>
<path d="M59.9016 37.0535H62.8033L62.8525 37.1031V47.6685L62.7541 47.7181H59.9508L59.9016 47.6685V37.0535Z" fill="black"/>
<path d="M59.1148 8.77979L59.3607 8.9782L59.8525 9.77185L60.0984 10.2679L60.2951 11.0119V12.2024L60.0492 13.1449L59.8525 13.5417L59.7541 13.5913L59.7049 12.9465L59.5082 12.4008L58.8197 12.5496L58.2787 12.5L58.1803 12.748L57.8361 13.0953L57.2459 13.5417L56.9016 14.0377L56.7541 14.3353L55.623 14.4842L55.0328 14.5338H54.4918L53.2131 14.3849L52.1803 14.1369L51.4426 13.8393L50.7049 13.3929L50.0164 12.6984L49.5738 12.004L49.3279 11.3095L49.1803 10.7143V10.3671L49.2787 10.3175L49.5246 11.0119L49.8689 11.8056L50.3115 12.5L50.9508 13.1449L51.7377 13.5417L52.377 13.7401L53.2623 13.8393H54.0492L54.8852 13.7401L55.5738 13.5913L56.2131 13.3433L56.7541 13.0457L57.1967 12.6984L57.6393 12.2024L58.082 11.508V11.1111L57.9836 10.6151V10.2183L58.1311 10.0199H58.2295L58.3279 9.82145L58.8689 9.12701L59.1148 8.77979Z" fill="#010000"/>
<path d="M59.1639 8.73022L59.4098 8.92864L59.9016 9.72229L60.1475 10.2183L60.3443 10.9624V12.1528L60.0984 13.0953L59.9016 13.4921L59.7049 13.6905L59.6066 12.8969L59.5082 12.4505L58.8197 12.5993L58.3279 12.5001L58.0328 11.2104L57.9344 10.7144V10.2183L58.1803 9.9703L58.2295 9.9207L58.3279 9.72229L58.8197 9.02784L59.1639 8.73022Z" fill="#FF0404"/>
<path d="M24.7869 31.3989H27.1967L27.541 31.5477L27.8361 31.7958L27.9836 32.143V32.7382L27.7377 33.2342L27.541 33.3831L27.2459 33.4823L27.6393 34.2759L27.9344 34.7719L27.8852 34.9208H27.2459L27.0984 34.7719L26.5082 33.7303L26.459 33.5815L25.4754 33.5319V34.8711L25.377 34.9208H24.8361L24.7869 34.8711V31.3989ZM25.4754 31.9942V32.9366H26.9016L27.1967 32.8374L27.2951 32.5398L27.2459 32.0934L27.0984 31.9942H25.4754Z" fill="black"/>
<path d="M9.63934 31.3989H12.0492L12.4426 31.5477L12.7377 31.895L12.8361 32.143V32.7382L12.5902 33.2342L12.3934 33.3831L12.0984 33.4823L12.4918 34.2759L12.7869 34.7719V34.9208H12.1475L12 34.8711L11.4098 33.8295L11.3115 33.5815L10.3279 33.5319V34.8711L10.0328 34.9208L9.63934 34.8711V31.3989ZM10.3279 31.9942V32.9366H11.7049L12.0492 32.8374L12.1475 32.5398L12.0984 32.0934L11.9508 31.9942H10.3279Z" fill="black"/>
<path d="M22.2295 31.2996H22.9672L23.459 31.4484L23.8525 31.746L24.0984 32.0932L24.2459 32.5396L24.2951 32.7877V33.4821L24.1475 34.0773L23.9016 34.5238L23.5574 34.8214L23.1148 34.9702L22.8689 35.0198H22.2295L21.6393 34.8214L21.2459 34.4742L21 33.9781L20.9016 33.5813V32.6388L21.0492 32.1428L21.3443 31.746L21.6885 31.4484L21.9344 31.3492L22.2295 31.2996ZM22.2787 31.8948L21.9836 32.0436L21.6885 32.3908L21.5902 32.6884V33.6309L21.7377 33.9781L21.9836 34.2758L22.3279 34.4246H22.8197L23.1639 34.2758L23.4098 34.0277L23.5574 33.6805L23.6066 33.4325V32.8869L23.5082 32.4404L23.3115 32.1428L23.0656 31.9444L22.918 31.8948H22.2787Z" fill="black"/>
<path d="M30.9344 31.2996H31.7213L32.2131 31.4484L32.6066 31.746L32.8525 32.0932L33 32.49L33.0492 32.7877V33.4821L32.9508 33.9781L32.7541 34.375L32.3607 34.7718L31.8689 34.9702L31.623 35.0198H30.9836L30.4918 34.871L30.0984 34.5734L29.8033 34.1269L29.6557 33.6309V32.6388L29.8033 32.1428L30.0984 31.746L30.3934 31.498L30.9344 31.2996ZM31.0328 31.8948L30.6393 32.0932L30.3934 32.5396L30.2951 33.2837L30.3934 33.8293L30.5902 34.1269L30.8361 34.3254L31.1311 34.4246H31.623L32.0164 34.2261L32.2623 33.8789L32.3607 33.4325V32.7877L32.2131 32.3412L31.9672 32.0436L31.6721 31.8948H31.0328Z" fill="black"/>
<path d="M15.8852 31.3989H16.5738L16.918 32.0934L17.5082 33.4327L17.9508 34.4247L18.0984 34.8711L18.0492 34.9208H17.4098L17.2623 34.6727L17.0164 34.2263H15.2951L15.1475 34.6727L15.0492 34.8711L14.8525 34.9208H14.3607L14.3115 34.7719L15.1967 32.7382L15.6393 31.7461L15.7869 31.4485L15.8852 31.3989ZM16.1803 32.2422L15.8852 32.8374L15.5902 33.5319V33.6311H16.7705L16.623 33.135L16.2787 32.2918L16.1803 32.2422Z" fill="black"/>
<path d="M7.47541 31.3989H9.04918V31.9446L9 31.9942L7.57377 32.0438L7.22951 32.1926L7.03279 32.5398L6.98361 32.7382V33.6311L7.18033 34.0279L7.42623 34.2263L7.57377 34.2759L9.04918 34.3255V34.8711L8.90164 34.9208H7.81967L7.08197 34.8215L6.63935 34.5239L6.39344 34.1271L6.2459 33.6311V32.6886L6.39344 32.143L6.68853 31.7461L7.03279 31.4981L7.47541 31.3989Z" fill="black"/>
<path d="M17.5574 31.3989H20.8033V31.9446L20.7541 31.9942H19.5246V34.8711L19.4262 34.9208H18.8852L18.8361 34.8711V31.9942H17.5574L17.5082 31.8454V31.4981L17.5574 31.3989Z" fill="black"/>
<path d="M13.3279 31.3989H13.9672L14.0164 31.4485V34.8711L13.918 34.9208H13.377L13.3279 34.8711V31.3989Z" fill="black"/>
<path d="M28.4754 31.3989H29.1148L29.1639 31.4485V34.8711L28.8689 34.9208H28.5246L28.4754 34.8711V31.3989Z" fill="black"/>
<path d="M27.6885 49.9504L27.8852 50.0496L28.3771 50.8433L28.7213 51.3393L28.7705 51.3889L28.8197 50.0992L29.0656 50.0496V51.9842L28.8689 52.0834L28.5246 51.6866L28.1311 50.9921L27.8852 50.6945L27.8361 51.9842L27.5902 52.0338L27.541 51.7362V50.1985L27.6885 49.9504Z" fill="black"/>
<path d="M14.2131 50L14.9508 50.0496L15.1475 50.1488L15.2951 50.3968V50.7937L15.0984 51.0417L14.9016 51.0913L15.3443 51.8849L15.2951 52.0833L15.0984 51.9841L14.6066 51.2401L14.0656 51.1409V51.9841L13.8689 52.0337L13.8197 51.9841L13.7705 51.3393V50.4464L13.8197 50.0496L14.2131 50ZM14.2623 50.248L14.0656 50.2976V50.8433L14.1148 50.8929H14.8033L15 50.7937L15.0492 50.5456L14.8525 50.2976L14.2623 50.248Z" fill="black"/>
<path d="M35.7541 50H36.2459L36.541 50.1488L36.7869 50.4464V50.6944L36.5902 50.5952L36.2951 50.3472L36.1967 50.2976H35.7541L35.459 50.3968L35.3607 50.6448L35.3115 50.7937V51.2897L35.5574 51.6865L35.8033 51.7857H36.2459L36.4918 51.6369L36.541 51.5873V51.3393L36.0492 51.2897L36 51.0913L36.3443 50.9921L36.7869 51.0417L36.8852 51.3889L36.7869 51.7857L36.541 51.9841L36.2459 52.0833H35.7049L35.4098 51.9345L35.1147 51.5873L35.0164 51.3889V50.6944L35.2623 50.2976L35.5574 50.0496L35.7541 50Z" fill="black"/>
<path d="M49.082 50L49.3279 50.0992L49.9672 51.0913L50.2131 51.4385L50.2623 50.0496H50.5082V51.9841L50.2623 52.0337L50.0656 51.7857L49.4262 50.744L49.3279 50.5952L49.2787 51.9841L49.0328 52.0337L48.9836 51.2401L49.0328 50.0496L49.082 50Z" fill="black"/>
<path d="M56.5082 50.0496H57.8852L57.8361 50.2976H56.7541V50.8928H57.7869L57.8361 51.1408H56.7541V51.7857H57.9344L57.9836 51.9841L57.9344 52.0337H56.5082L56.459 51.7361V50.1488L56.5082 50.0496Z" fill="black"/>
<path d="M64.4754 50H64.8688L65.1639 50.1488L65.3607 50.3968L65.4098 50.5952L65.2623 50.6448L64.8197 50.2976H64.4262L64.1803 50.3968L64.082 50.744V51.3393L64.2295 51.6369L64.5246 51.7857H64.8197L65.1148 51.5377L65.2131 51.3393L65.459 51.3889L65.3607 51.6865L64.9672 52.0337L64.8688 52.0833H64.377L64.1311 51.9345L63.8852 51.6865L63.7377 51.1905V50.8433L63.8852 50.3968L64.2787 50.0496L64.4754 50Z" fill="black"/>
<path d="M71.4098 50L71.6066 50.0992L71.6557 50.9425L72.2951 50.2976L72.6885 50H72.8361L72.7869 50.1984L72.4918 50.496H72.3934L72.2951 50.6944L72.1475 50.8929L72.6393 51.5377L72.9344 51.9345V52.0337L72.6393 51.9841L72.1475 51.3889L71.9508 51.1409L71.7541 51.1905L71.6066 51.5377L71.5574 52.0337H71.3606V50.0496L71.4098 50Z" fill="black"/>
<path d="M21.2951 50.0496H21.5902V51.9841L21.3934 52.0337L21.2951 51.7361V50.0496Z" fill="black"/>
<path d="M30.5902 45.7837L30.6885 45.8333V47.371L30.4426 47.123L30.0984 46.6269L30.1475 46.4285L30.5902 45.7837Z" fill="#8EB829"/>
<path d="M22.8689 30.2581L23.0656 30.3077L23.1148 30.5557L22.5738 30.9525L22.3279 31.1013H22.1311L22.1803 30.8533L22.7213 30.3573L22.8689 30.2581Z" fill="black"/>
<path d="M55.3279 8.87891H55.6721L55.7705 8.97811V9.27573L55.5738 9.47414L55.3279 9.42454L55.1803 9.22613L55.2295 8.92851L55.3279 8.87891Z" fill="#0B1004"/>
<path d="M30.5902 45.7837L30.6885 45.8333V47.371L30.5902 47.2718V46.1309L30.541 45.8829L30.5902 45.7837Z" fill="#589B3B"/>
<path d="M27.8361 50.5952L28.0328 50.8432L27.9344 50.8928L27.8852 51.9841H27.8361V50.5952Z" fill="#559A3D"/>
<path d="M28.7705 50.3472H28.8197V51.488L28.6721 51.2896L28.7213 51.1408L28.7705 50.3472Z" fill="#559A3D"/>
</svg>
