<svg width="50" height="50" viewBox="0 0 50 50" fill="none" xmlns="http://www.w3.org/2000/svg">
<path d="M4.16675 12.4899C4.16675 11.3449 5.095 10.4166 6.24006 10.4166H22.9267C24.0717 10.4166 25.0001 11.3449 25.0001 12.4899C25.0001 13.635 24.0717 14.5633 22.9267 14.5633H6.24006C5.095 14.5633 4.16675 13.635 4.16675 12.4899Z" fill="#9DBF21"/>
<path d="M4.16675 24.9996C4.16675 23.8544 5.095 22.9263 6.24006 22.9263H43.7601C44.9051 22.9263 45.8334 23.8544 45.8334 24.9996C45.8334 26.1446 44.9051 27.0727 43.7601 27.0727H6.24006C5.095 27.0727 4.16675 26.1446 4.16675 24.9996Z" fill="#9DBF21"/>
<path d="M6.24006 35.4366C5.095 35.4366 4.16675 36.365 4.16675 37.51C4.16675 38.655 5.095 39.5833 6.24006 39.5833H31.2601C32.4051 39.5833 33.3334 38.655 33.3334 37.51C33.3334 36.365 32.4051 35.4366 31.2601 35.4366H6.24006Z" fill="#9DBF21"/>
</svg>
