<svg width="137" height="137" viewBox="0 0 137 137" fill="none" xmlns="http://www.w3.org/2000/svg">
<g clip-path="url(#clip0_42_71)">
<path d="M77.8096 48.1023L89.579 38.6022C90.4633 37.888 90.3948 36.514 89.4396 35.898C83.1788 31.8621 75.6877 29.5781 67.6633 29.7483C47.1762 30.1825 30.4279 46.7312 29.7611 67.2121C29.0319 89.5916 47.3854 107.954 69.7619 107.24C89.9758 106.595 106.427 90.2758 107.23 70.0677C107.442 64.7178 106.562 59.5942 104.796 54.9001C104.396 53.8365 103.068 53.4803 102.183 54.1939L90.4039 63.7018C89.9432 64.0737 89.7136 64.6611 89.8032 65.2462C89.9656 66.3077 90.0513 67.3938 90.0513 68.4997C90.0513 80.7246 79.8201 90.6049 67.4706 90.0267C56.4408 89.5108 47.4892 80.5597 46.9731 69.5294C46.3951 57.1796 56.2751 46.9482 68.5 46.9482C71.2023 46.9482 73.7889 47.4507 76.1741 48.3637C76.7264 48.5756 77.3491 48.4739 77.8096 48.1023Z" fill="url(#paint0_linear_42_71)"/>
<path d="M128.494 35.4734C127.992 34.5653 126.788 34.3335 125.981 34.9854L108.963 48.7218C108.376 49.1962 108.178 50.0056 108.486 50.6949C110.991 56.2988 112.352 62.5221 112.269 69.0655C111.964 93.109 92.5453 112.273 68.5 112.273C44.0385 112.273 24.1992 92.1034 24.7384 67.5221C25.2484 44.28 44.0918 25.3526 67.3314 24.7433C77.4309 24.4786 86.7924 27.6561 94.329 33.1824C94.9375 33.6285 95.7704 33.6052 96.3572 33.1313L113.374 19.3955C114.181 18.7439 114.209 17.5181 113.427 16.8371C101.151 6.14767 85.0459 -0.252 67.4695 0.0080858C30.5563 0.553678 0.524684 30.6089 0.00718776 67.5223C-0.545629 106.924 32.3512 138.931 72.062 136.909C107.788 135.09 136.24 105.717 136.985 69.9525C137.246 57.4435 134.13 45.6692 128.494 35.4734Z" fill="url(#paint1_linear_42_71)"/>
<path d="M62.2031 60.6996L72.4377 52.4384C71.1747 52.1285 69.8566 51.9607 68.4997 51.9607C59.3801 51.9607 51.9607 59.3801 51.9607 68.5C51.9607 77.6199 59.3801 85.0393 68.4997 85.0393C77.6193 85.0393 85.0387 77.6199 85.0387 68.5C85.0387 68.3464 85.0315 68.1947 85.027 68.0422L74.7961 76.3002C70.5138 79.757 64.1979 79.1303 60.6996 74.7958C57.2275 70.4951 57.9023 64.1714 62.2031 60.6996Z" fill="url(#paint2_linear_42_71)"/>
<path d="M64.5998 71.6481C66.339 73.8029 69.4946 74.1384 71.6483 72.4002L131.365 24.1976C133.519 22.4592 133.855 19.3034 132.117 17.1494C130.378 14.9951 127.222 14.659 125.068 16.3972L65.3514 64.5995C63.1977 66.3385 62.8611 69.4941 64.5998 71.6481Z" fill="url(#paint3_linear_42_71)"/>
</g>
<defs>
<linearGradient id="paint0_linear_42_71" x1="29.7401" y1="68.4997" x2="107.261" y2="68.4997" gradientUnits="userSpaceOnUse">
<stop offset="0.45" stop-color="#9DBF21"/>
<stop offset="0.86" stop-color="#9DBF21" stop-opacity="0.8"/>
</linearGradient>
<linearGradient id="paint1_linear_42_71" x1="0.000320435" y1="68.5003" x2="137" y2="68.5003" gradientUnits="userSpaceOnUse">
<stop offset="0.45" stop-color="#9DBF21"/>
<stop offset="0.86" stop-color="#9DBF21" stop-opacity="0.8"/>
</linearGradient>
<linearGradient id="paint2_linear_42_71" x1="51.9607" y1="68.5" x2="85.0387" y2="68.5" gradientUnits="userSpaceOnUse">
<stop offset="0.45" stop-color="#9DBF21"/>
<stop offset="0.86" stop-color="#9DBF21" stop-opacity="0.8"/>
</linearGradient>
<linearGradient id="paint3_linear_42_71" x1="63.4875" y1="44.3988" x2="133.229" y2="44.3988" gradientUnits="userSpaceOnUse">
<stop offset="0.45" stop-color="#9DBF21"/>
<stop offset="0.86" stop-color="#9DBF21" stop-opacity="0.8"/>
</linearGradient>
<clipPath id="clip0_42_71">
<rect width="137" height="137" fill="white"/>
</clipPath>
</defs>
</svg>
