<svg width="40" height="40" viewBox="0 0 40 40" fill="none" xmlns="http://www.w3.org/2000/svg">
<g clip-path="url(#clip0_71_156)">
<path d="M20 0C8.9543 0 0 8.9543 0 20C0 31.0457 8.9543 40 20 40C31.0457 40 40 31.0457 40 20C40 8.9543 31.0457 0 20 0Z" fill="url(#paint0_linear_71_156)"/>
<path d="M30.7601 14.651C30.0176 14.651 29.2825 14.5048 28.5966 14.2207C27.9107 13.9366 27.2874 13.5201 26.7624 12.9952C26.2375 12.4702 25.821 11.847 25.5369 11.1611C25.2528 10.4751 25.1066 9.73999 25.1066 8.99756H21.0675V24.8138C21.0667 25.5349 20.839 26.2375 20.4167 26.8219C19.9943 27.4064 19.3987 27.8431 18.7143 28.0701C18.0299 28.2972 17.2913 28.3031 16.6034 28.0869C15.9154 27.8708 15.313 27.4437 14.8813 26.866C14.4497 26.2883 14.2109 25.5895 14.1986 24.8685C14.1864 24.1475 14.4013 23.4409 14.8131 22.849C15.2248 22.257 15.8124 21.8096 16.4926 21.5702C17.1729 21.3308 17.9111 21.3116 18.6029 21.5153V17.589C17.1328 17.3908 15.6372 17.6458 14.3159 18.3199C12.9946 18.994 11.9103 20.0552 11.208 21.3618C10.5056 22.6684 10.2186 24.1581 10.3852 25.6321C10.5518 27.1061 11.1641 28.4942 12.1404 29.611C13.1167 30.7278 14.4104 31.5202 15.8489 31.8824C17.2874 32.2446 18.8021 32.1593 20.1909 31.6379C21.5796 31.1166 22.7762 30.1839 23.621 28.9646C24.4657 27.7452 24.9183 26.2972 24.9184 24.8138L25.0356 16.8191C26.6952 18.0374 28.7009 18.693 30.7596 18.6899L30.7601 14.651Z" fill="url(#paint1_linear_71_156)"/>
<path d="M29.6923 13.5505C28.193 13.5504 26.755 12.9548 25.6948 11.8946C24.6346 10.8343 24.039 9.39634 24.0391 7.89697H20V23.7132C19.9993 24.4343 19.7716 25.1369 19.3492 25.7214C18.9269 26.3058 18.3313 26.7425 17.6468 26.9696C16.9624 27.1967 16.2239 27.2026 15.5359 26.9864C14.848 26.7703 14.2455 26.3432 13.8139 25.7655C13.3823 25.1879 13.1434 24.489 13.1311 23.768C13.1189 23.047 13.3338 22.3405 13.7456 21.7485C14.1573 21.1565 14.7449 20.7091 15.4251 20.4697C16.1054 20.2303 16.8437 20.2111 17.5354 20.4148V16.4885C16.0653 16.2902 14.5698 16.5452 13.2484 17.2193C11.9271 17.8935 10.8428 18.9547 10.1405 20.2612C9.43812 21.5678 9.15108 23.0575 9.31769 24.5315C9.4843 26.0055 10.0966 27.3936 11.0729 28.5104C12.0492 29.6272 13.3429 30.4197 14.7814 30.7818C16.2199 31.144 17.7346 31.0587 19.1234 30.5374C20.5121 30.016 21.7087 29.0834 22.5535 27.864C23.3982 26.6446 23.8508 25.1966 23.8509 23.7132L23.9688 15.7186C25.6283 16.9369 27.634 17.5924 29.6927 17.5893L29.6923 13.5505Z" fill="url(#paint2_linear_71_156)"/>
<path d="M29.6924 14.5499C28.2949 14.281 27.0502 13.4949 26.2068 12.3487C25.1408 11.5144 24.4097 10.3253 24.1463 8.99756H21.0677V24.8138C21.0677 25.5644 20.822 26.2944 20.3682 26.8924C19.9144 27.4903 19.2774 27.9233 18.5544 28.1253C17.8315 28.3273 17.0623 28.2872 16.3643 28.0111C15.6663 27.735 15.0778 27.2381 14.6886 26.5962C13.9966 26.1458 13.4897 25.4614 13.2607 24.6681C13.0316 23.8748 13.0956 23.0255 13.441 22.2755C13.7865 21.5255 14.3902 20.9248 15.142 20.5833C15.8937 20.2417 16.7433 20.182 17.5354 20.4151V17.5258C16.1767 17.5433 14.8499 17.9402 13.7049 18.6718C12.5598 19.4033 11.642 20.4404 11.0551 21.666C10.4682 22.8915 10.2356 24.2567 10.3835 25.6074C10.5313 26.9582 11.0538 28.2407 11.892 29.3102C12.956 30.1981 14.2511 30.7642 15.6254 30.9422C16.9997 31.1203 18.3963 30.9029 19.6515 30.3155C20.9067 29.728 21.9684 28.795 22.7121 27.6257C23.4559 26.4564 23.851 25.0993 23.8509 23.7135L23.9688 15.7189C25.6283 16.9372 27.634 17.5927 29.6927 17.5896L29.6924 14.5499Z" fill="url(#paint3_linear_71_156)"/>
</g>
<defs>
<linearGradient id="paint0_linear_71_156" x1="-0.105235" y1="40.1052" x2="39.8984" y2="0.101641" gradientUnits="userSpaceOnUse">
<stop stop-color="#111111"/>
<stop offset="1" stop-color="#323232"/>
</linearGradient>
<linearGradient id="paint1_linear_71_156" x1="11.9578" y1="29.4507" x2="28.7587" y2="12.6497" gradientUnits="userSpaceOnUse">
<stop stop-color="#B5053C"/>
<stop offset="0.233" stop-color="#C90441"/>
<stop offset="0.737" stop-color="#F0014B"/>
<stop offset="1" stop-color="#FF004F"/>
</linearGradient>
<linearGradient id="paint2_linear_71_156" x1="10.64" y1="28.6002" x2="28.3377" y2="10.9026" gradientUnits="userSpaceOnUse">
<stop stop-color="#00B2C9"/>
<stop offset="0.283" stop-color="#00C8D4"/>
<stop offset="0.741" stop-color="#00E6E4"/>
<stop offset="1" stop-color="#00F1EA"/>
</linearGradient>
<linearGradient id="paint3_linear_71_156" x1="0.724929" y1="39.5996" x2="39.8988" y2="0.425759" gradientUnits="userSpaceOnUse">
<stop stop-color="#DDE3E4"/>
<stop offset="1" stop-color="#FCF7F7"/>
</linearGradient>
<clipPath id="clip0_71_156">
<rect width="40" height="40" fill="white"/>
</clipPath>
</defs>
</svg>
