<svg width="40" height="41" viewBox="0 0 40 41" fill="none" xmlns="http://www.w3.org/2000/svg">
<path d="M20 40.5272C8.956 40.5272 0 31.4532 0 20.2636C0 9.07405 8.956 0 20 0C31.044 0 40 9.07405 40 20.2636C40 31.4532 31.044 40.5272 20 40.5272Z" fill="#FF0000"/>
<path d="M32.728 13.7413C32.424 12.5742 31.524 11.6582 30.38 11.3462C28.308 10.7788 20.004 10.7788 20.004 10.7788C20.004 10.7788 11.696 10.7788 9.62799 11.3462C8.48399 11.6582 7.58399 12.5742 7.27999 13.7413C6.71999 15.8528 6.71999 20.2622 6.71999 20.2622C6.71999 20.2622 6.71999 24.6715 7.27599 26.783C7.57999 27.9502 8.47999 28.8661 9.62399 29.1782C11.696 29.7456 20 29.7456 20 29.7456C20 29.7456 28.308 29.7456 30.376 29.1782C31.52 28.8661 32.42 27.9502 32.724 26.783C33.28 24.6715 33.28 20.2622 33.28 20.2622C33.28 20.2622 33.28 15.8528 32.728 13.7413ZM17.284 24.2622V16.2621L24.224 20.2622L17.284 24.2622Z" fill="white"/>
</svg>
