<svg width="29" height="28" viewBox="0 0 29 28" fill="none" xmlns="http://www.w3.org/2000/svg">
<g clip-path="url(#clip0_27_45)">
<path d="M27.3742 7.36271L27.8882 6.6773L26.5174 5.64917L26.0033 6.33459C25.425 7.10568 24.7396 7.76968 23.9685 8.30516L23.6044 9.03341C23.6044 9.24761 23.6258 9.4618 23.6258 9.67599C23.6258 15.4378 19.3205 23.5343 9.76751 23.5343C9.03926 23.5343 8.311 23.47 7.60417 23.3629L6.7474 23.2344L6.49036 24.9265L7.34713 25.055C8.13965 25.1835 8.975 25.2478 9.78893 25.2478C15.6578 25.2478 19.3205 22.4847 21.3553 20.1714C23.9042 17.2798 25.3607 13.4672 25.3607 9.67599C25.3607 9.59032 25.3607 9.50464 25.3607 9.41896C26.1104 8.84064 26.7744 8.13381 27.3742 7.36271Z" fill="black" stroke="black" stroke-width="0.000835556"/>
<path d="M3.06329 22.9987C5.61218 22.9987 8.01114 22.1633 10.0246 20.5997L10.6885 20.0643L9.639 18.7148L8.97501 19.2503C7.28288 20.5783 5.24805 21.2852 3.08471 21.2852C2.69916 21.2852 2.33503 21.2637 1.94948 21.2209L1.09271 21.1138L0.89994 22.8059L1.75671 22.913C2.1851 22.9773 2.6349 22.9987 3.06329 22.9987Z" fill="black" stroke="black" stroke-width="0.000835556"/>
<path d="M5.6336 17.6868C6.16908 17.6868 6.70456 17.6225 7.21862 17.4726L8.05397 17.2584L7.60417 15.6091L6.76882 15.8233C6.14766 15.9947 5.46224 16.0161 4.81967 15.8876L3.98431 15.7162L3.66302 17.4083L4.49838 17.5797C4.88392 17.6654 5.26947 17.6868 5.6336 17.6868Z" fill="black" stroke="black" stroke-width="0.000835556"/>
<path d="M6.01914 13.2531L6.0834 11.5396L5.22663 11.5181C4.54121 11.4967 3.87722 11.3039 3.27748 10.9827L2.5278 10.5757L1.69245 12.075L2.44213 12.482C3.27748 12.9532 4.21993 13.2103 5.18379 13.2317L6.01914 13.2531Z" fill="black" stroke="black" stroke-width="0.000835556"/>
<path d="M15.1009 10.0617C15.0367 9.74037 14.9938 9.41908 14.9938 9.07637C14.9938 6.69883 16.9215 4.74967 19.3205 4.74967C20.52 4.74967 21.6552 5.24232 22.4691 6.12051L23.2617 6.37754C24.2684 6.18477 25.2536 5.84206 26.1747 5.37083L26.9458 4.98529L26.1747 3.46452L25.4036 3.85006C24.761 4.17135 24.0756 4.42839 23.3687 4.59974C22.2764 3.61445 20.8199 3.03613 19.3205 3.03613C16.0005 3.03613 13.2803 5.73496 13.2803 9.07637C13.2803 9.16204 13.2803 9.2263 13.2803 9.31198C9.76751 8.86217 6.51178 7.08437 4.26276 4.32129L2.84909 4.42839C2.31361 5.32799 2.03516 6.37754 2.03516 7.4485V8.30527H3.7487V7.4485C3.7487 7.10579 3.79154 6.76309 3.87721 6.4418C6.59746 9.2263 10.303 10.9184 14.2227 11.1112L15.1009 10.0617Z" fill="black" stroke="black" stroke-width="0.000835556"/>
</g>
<defs>
<clipPath id="clip0_27_45">
<rect width="27.4167" height="27.4167" fill="white" transform="translate(0.75 0.444336)"/>
</clipPath>
</defs>
</svg>
