<svg width="40" height="41" viewBox="0 0 40 41" fill="none" xmlns="http://www.w3.org/2000/svg">
<path d="M20 40.5272C8.956 40.5272 0 31.4532 0 20.2636C0 9.07405 8.956 0 20 0C31.044 0 40 9.07405 40 20.2636C40 31.4532 31.044 40.5272 20 40.5272Z" fill="#3B579D"/>
<path d="M25.2 40.5256V24.8294H30.4L31.18 18.7139H25.2V14.8071C25.2 13.036 25.684 11.8283 28.192 11.8283H31.388V6.36118C30.836 6.28823 28.936 6.12207 26.728 6.12207C22.12 6.12207 18.964 8.97114 18.964 14.2073V18.7179H13.752V24.8335H18.964V40.5256H25.2Z" fill="white"/>
</svg>
