<svg width="41" height="40" viewBox="0 0 41 40" fill="none" xmlns="http://www.w3.org/2000/svg">
<path d="M20.0218 0C31.0218 0 40.0218 9 40.0218 20C40.0218 31 31.0218 40 20.0218 40C9.02179 40 0.0217896 31 0.0217896 20C0.0217896 9 9.02179 0 20.0218 0Z" fill="url(#paint0_linear_71_148)"/>
<path d="M25.8968 7.5H14.0218C10.3968 7.5 7.52179 10.5 7.52179 14.25V25.75C7.52179 29.375 10.3968 32.375 14.1468 32.5H26.0218C29.6468 32.5 32.6468 29.5 32.6468 25.75V14.25C32.5218 10.5 29.6468 7.5 25.8968 7.5ZM30.2718 25.625C30.2718 28.125 28.2718 30.25 25.6468 30.25H14.2718C11.7718 30.25 9.64679 28.125 9.77179 25.625V14.375C9.77179 11.875 11.7718 9.75 14.2718 9.75H25.6468C28.1468 9.75 30.2718 11.875 30.2718 14.375V25.625Z" fill="white"/>
<path d="M20.0218 13.625C16.5218 13.5 13.5218 16.375 13.5218 19.875C13.3968 23.375 16.2718 26.375 19.7718 26.375C23.2718 26.375 26.2718 23.625 26.2718 20.125V20C26.3968 16.5 23.5218 13.625 20.0218 13.625ZM20.0218 24.125C17.7718 24.125 15.8968 22.375 15.7718 20.125C15.7718 17.875 17.5218 16 19.7718 15.875C22.0218 15.75 23.8968 17.625 24.0218 19.875V20C24.1468 22.25 22.2718 24.125 20.0218 24.125Z" fill="white"/>
<path d="M26.6468 11.75C27.3968 11.75 28.0218 12.375 28.0218 13.25C28.0218 14.125 27.3968 14.75 26.6468 14.75C25.8968 14.75 25.2718 14.125 25.2718 13.25C25.2718 12.375 25.8968 11.75 26.6468 11.75Z" fill="white"/>
<defs>
<linearGradient id="paint0_linear_71_148" x1="10.0184" y1="37.3245" x2="30.0218" y2="2.67775" gradientUnits="userSpaceOnUse">
<stop stop-color="#FEC053"/>
<stop offset="0.327" stop-color="#F2203E"/>
<stop offset="0.648" stop-color="#B729A8"/>
<stop offset="1" stop-color="#5342D6"/>
</linearGradient>
</defs>
</svg>
