<svg width="137" height="137" viewBox="0 0 137 137" fill="none" xmlns="http://www.w3.org/2000/svg">
<path d="M75.8081 72.7812L54.4018 51.375H74.0357L95.4419 72.7812H75.8081ZM17.125 64.2187C15.6137 64.2187 14.1881 63.9105 12.8438 63.431V72.7812H44.0669L28.5046 57.2189C26.3682 61.3589 22.1041 64.2187 17.125 64.2187ZM118.415 37.508C120.757 37.1998 122.41 35.0506 122.101 32.7087L121.545 28.4617C121.301 26.5951 120.629 24.8997 119.695 23.3927L109.454 38.6896L118.415 37.508ZM103.807 39.4303L116.758 20.0876C114.549 18.3366 111.788 17.2834 108.825 17.2834C108.269 17.2834 107.708 17.3176 107.138 17.3947L100.288 18.2938L84.4262 41.9819L103.807 39.4303ZM121.129 72.7812L99.7232 51.375H80.0893L101.496 72.7812H121.129ZM69.7544 72.7812L48.3482 51.375H45.514H29.9688C29.9688 51.7646 29.9088 52.1328 29.8617 52.5052L50.1206 72.7812H69.7544ZM25.6875 51.375C25.6875 46.6442 21.8558 42.8125 17.125 42.8125C12.3942 42.8125 8.5625 46.6442 8.5625 51.375C8.5625 56.1058 12.3942 59.9375 17.125 59.9375C21.8558 59.9375 25.6875 56.1058 25.6875 51.375ZM12.8438 77.0625H124.156V111.312C124.156 118.407 118.407 124.156 111.312 124.156H25.6875C18.5935 124.156 12.8438 118.407 12.8438 111.312V77.0625ZM51.375 96.3281C51.375 97.5097 52.334 98.4687 53.5156 98.4687H83.4844C84.666 98.4687 85.625 97.5097 85.625 96.3281C85.625 95.1465 84.666 94.1875 83.4844 94.1875H53.5156C52.334 94.1875 51.375 95.1465 51.375 96.3281ZM51.375 104.891C51.375 106.072 52.334 107.031 53.5156 107.031H83.4844C84.666 107.031 85.625 106.072 85.625 104.891C85.625 103.709 84.666 102.75 83.4844 102.75H53.5156C52.334 102.75 51.375 103.709 51.375 104.891ZM119.875 51.375H105.777L124.156 69.7544V55.6562C124.156 53.293 122.238 51.375 119.875 51.375ZM78.7793 42.7269L94.6456 19.0301L75.2729 21.5689L59.3981 45.2785L78.7793 42.7269ZM53.7511 46.0234L69.6302 22.3096L50.2619 24.8441L34.3956 48.5708L53.7511 46.0234ZM29.5149 48.164L44.6149 25.5847L22.2411 28.5174C16.1746 29.3137 11.675 34.2286 11.1398 40.0768C12.9337 39.122 14.9501 38.5312 17.125 38.5312C23.1016 38.5312 28.0807 42.6327 29.5149 48.164Z" fill="url(#paint0_linear_42_39)"/>
<defs>
<linearGradient id="paint0_linear_42_39" x1="8.5625" y1="70.7198" x2="124.156" y2="70.7198" gradientUnits="userSpaceOnUse">
<stop offset="0.53" stop-color="#9DBF21"/>
<stop offset="0.89" stop-color="#9DBF21" stop-opacity="0.8"/>
</linearGradient>
</defs>
</svg>
