<svg width="41" height="40" viewBox="0 0 41 40" fill="none" xmlns="http://www.w3.org/2000/svg">
<path d="M20.0218 40C31.0675 40 40.0218 31.0457 40.0218 20C40.0218 8.9543 31.0675 0 20.0218 0C8.97609 0 0.0217896 8.9543 0.0217896 20C0.0217896 31.0457 8.97609 40 20.0218 40Z" fill="#25D366"/>
<path d="M28.8799 11.0904C26.5293 8.73727 23.404 7.44102 20.074 7.43945C13.2134 7.43945 7.62835 13.0232 7.62616 19.8866C7.62491 22.081 8.19835 24.2226 9.28741 26.1095L7.52179 32.5601L14.1202 30.8295C15.9387 31.8204 17.9855 32.3432 20.069 32.3441H20.0743C26.9349 32.3441 32.519 26.7595 32.5218 19.8963C32.5234 16.5707 31.2293 13.4432 28.8799 11.0904ZM20.0743 30.2416H20.0702C18.213 30.241 16.3924 29.7423 14.8037 28.7998L14.4259 28.5754L10.5102 29.6026L11.5549 25.7851L11.309 25.3926C10.273 23.7457 9.72585 21.8423 9.7271 19.8866C9.72898 14.1826 14.3705 9.54164 20.0774 9.54164C22.8412 9.54227 25.4384 10.6201 27.3921 12.576C29.3455 14.5316 30.4205 17.1307 30.4199 19.8954C30.418 25.6004 25.7765 30.2416 20.0743 30.2416ZM25.7493 22.4932C25.438 22.3373 23.909 21.5857 23.6237 21.481C23.3384 21.3773 23.1318 21.3257 22.9243 21.637C22.7168 21.9482 22.1209 22.6491 21.939 22.8566C21.7577 23.0641 21.5765 23.0904 21.2652 22.9345C20.954 22.7785 19.9521 22.4504 18.7649 21.3904C17.8399 20.5663 17.2155 19.547 17.0343 19.2357C16.853 18.9245 17.0149 18.7566 17.1709 18.6013C17.3109 18.462 17.4821 18.2382 17.6374 18.0563C17.7927 17.8745 17.8446 17.7448 17.9484 17.5376C18.0521 17.3301 18.0005 17.1485 17.9224 16.9929C17.8443 16.837 17.2224 15.306 16.9637 14.6832C16.7109 14.0766 16.4546 14.1588 16.264 14.1495C16.0821 14.1407 15.8749 14.1382 15.6677 14.1382C15.4605 14.1382 15.1234 14.216 14.8384 14.5276C14.5537 14.8388 13.7499 15.591 13.7499 17.1226C13.7499 18.6532 14.8643 20.1326 15.0199 20.3398C15.1755 20.547 17.213 23.6891 20.333 25.0363C21.0749 25.3563 21.6546 25.5479 22.1062 25.6916C22.8512 25.9288 23.5293 25.8948 24.0655 25.8148C24.663 25.7257 25.9055 25.0626 26.1652 24.336C26.4243 23.6098 26.4243 22.9873 26.3459 22.8573C26.2674 22.727 26.0599 22.6491 25.7493 22.4932Z" fill="white"/>
</svg>
